<svg width="1440" height="900" viewBox="0 0 1440 900" fill="none" xmlns="http://www.w3.org/2000/svg">
<rect width="1440" height="900" fill="white"/>
<path d="M340.067 475.466L309.564 494.095L317.857 459.327L290.717 436.079L326.341 433.225L340.067 400.221L353.793 433.225L389.422 436.079L362.277 459.327L370.57 494.095L340.067 475.466Z" fill="#6B7094"/>
<path d="M530.278 475.466L499.775 494.095L508.067 459.327L480.928 436.079L516.552 433.225L530.278 400.221L544.003 433.225L579.633 436.079L552.488 459.327L560.78 494.095L530.278 475.466Z" fill="#6B7094"/>
<path d="M720.488 475.466L689.985 494.095L698.278 459.327L671.138 436.079L706.762 433.225L720.488 400.221L734.214 433.225L769.843 436.079L742.698 459.327L750.99 494.095L720.488 475.466Z" fill="#6B7094"/>
<path d="M910.698 475.466L880.196 494.095L888.488 459.327L861.348 436.079L896.973 433.225L910.698 400.221L924.424 433.225L960.053 436.079L932.908 459.327L941.201 494.095L910.698 475.466Z" fill="#6B7094"/>
<path d="M1100.91 475.466L1070.41 494.095L1078.7 459.327L1051.56 436.079L1087.18 433.225L1100.91 400.221L1114.63 433.225L1150.26 436.079L1123.12 459.327L1131.41 494.095L1100.91 475.466Z" fill="#6B7094"/>
</svg>
